<svg width="39" height="43" viewBox="0 0 39 43" fill="none" xmlns="http://www.w3.org/2000/svg">
<g clip-path="url(#clip0)">
<path d="M16.69 27.6601L19.41 11.7701L13.41 27.6601H10.11L12.93 14.1701C12.9885 13.9106 13.0219 13.646 13.03 13.3801C12.9903 13.0028 12.8889 12.6346 12.73 12.2901L10.15 5.70012H12.85C13.0706 5.68431 13.292 5.71497 13.5 5.79012C13.6672 5.87401 13.8166 5.98947 13.94 6.13012L19.48 11.5301C18.6267 9.53012 17.6933 7.59012 16.68 5.71012C17.59 5.85012 18.56 5.51012 19.43 5.80012C19.8109 5.94939 20.1654 6.15871 20.48 6.42012L25.72 10.2701C25.9 9.94013 25.72 9.55013 25.48 9.27013L23.18 5.78012C24.3651 5.59153 25.5772 5.66665 26.73 6.00012C27.1141 6.14965 27.4853 6.33025 27.84 6.54012L32.29 8.98012C32.41 9.04012 31.01 13.4401 30.89 13.8601L29.46 18.8601L28.03 23.8601L27.32 26.3501C27.2567 26.7626 27.1425 27.1657 26.98 27.5501C26.77 27.8601 26.39 27.7501 25.98 27.7501H22.91L25.45 12.0001L16.69 5.70012L25.45 12.0001L20.45 27.7001L16.69 27.6601ZM35.36 0.000124666H3.62C2.66165 0.00012101 1.7424 0.38014 1.0638 1.05686C0.385208 1.73358 0.00264739 2.65177 0 3.61012V39.0601C-1.82207e-06 39.535 0.0937039 40.0053 0.275748 40.4439C0.457793 40.8826 0.724598 41.281 1.06088 41.6163C1.39716 41.9517 1.7963 42.2174 2.23544 42.3982C2.67458 42.579 3.14509 42.6714 3.62 42.6701H35.36C35.8366 42.6741 36.3092 42.5836 36.7507 42.404C37.1922 42.2243 37.5937 41.9591 37.9321 41.6234C38.2705 41.2878 38.5391 40.8885 38.7224 40.4486C38.9057 40.0086 39 39.5367 39 39.0601V3.61012C39 3.13352 38.9057 2.66163 38.7224 2.22167C38.5391 1.78172 38.2705 1.38242 37.9321 1.0468C37.5937 0.711189 37.1922 0.445906 36.7507 0.266261C36.3092 0.0866156 35.8366 -0.00383606 35.36 0.000124666V0.000124666ZM15.51 37.4701L14.05 37.1701V33.3601C14.0531 33.2092 14.0248 33.0593 13.9669 32.9199C13.9091 32.7805 13.8229 32.6547 13.7138 32.5503C13.6048 32.446 13.4752 32.3654 13.3334 32.3137C13.1916 32.2621 13.0406 32.2404 12.89 32.2501C12.739 32.2388 12.5874 32.2594 12.4449 32.3105C12.3024 32.3616 12.1722 32.4421 12.0628 32.5468C11.9534 32.6515 11.8673 32.778 11.8099 32.9181C11.7526 33.0582 11.7254 33.2088 11.73 33.3601V37.4701L10.27 37.1701V33.3601C10.2732 33.2083 10.2446 33.0575 10.1862 32.9174C10.1277 32.7773 10.0406 32.6509 9.93045 32.5464C9.82029 32.4419 9.68952 32.3616 9.54652 32.3106C9.40351 32.2595 9.25142 32.2389 9.1 32.2501C8.94858 32.2389 8.79649 32.2595 8.65348 32.3106C8.51048 32.3616 8.37971 32.4419 8.26955 32.5464C8.1594 32.6509 8.0723 32.7773 8.01383 32.9174C7.95535 33.0575 7.9268 33.2083 7.93 33.3601V37.4701L6.47 37.1701V31.1701L7.93 30.8901V31.5601C8.13894 31.3038 8.40298 31.0978 8.7025 30.9576C9.00202 30.8173 9.3293 30.7464 9.66 30.7501C9.98781 30.7613 10.3087 30.8472 10.5982 31.0015C10.8876 31.1558 11.138 31.3742 11.33 31.6401C11.5561 31.3611 11.8431 31.1376 12.169 30.9868C12.4949 30.836 12.851 30.7619 13.21 30.7701C13.5367 30.7631 13.861 30.8267 14.1608 30.9566C14.4606 31.0864 14.7289 31.2795 14.9473 31.5225C15.1656 31.7656 15.3289 32.0529 15.4261 32.3649C15.5232 32.6768 15.5518 33.0061 15.51 33.3301V37.4701ZM19.32 37.4701L17.86 37.1701V31.1701L19.32 30.8901V37.4701ZM18.63 29.9001C18.3833 29.9001 18.1468 29.8021 17.9724 29.6277C17.798 29.4533 17.7 29.2168 17.7 28.9701C17.7 28.7235 17.798 28.4869 17.9724 28.3125C18.1468 28.1381 18.3833 28.0401 18.63 28.0401C18.8767 28.0401 19.1132 28.1381 19.2876 28.3125C19.462 28.4869 19.56 28.7235 19.56 28.9701C19.56 29.2168 19.462 29.4533 19.2876 29.6277C19.1132 29.8021 18.8767 29.9001 18.63 29.9001ZM25.17 32.3001L24.33 32.4501C24.1631 32.4603 23.9999 32.5033 23.8496 32.5768C23.6994 32.6502 23.5652 32.7525 23.4546 32.878C23.3441 33.0034 23.2593 33.1494 23.2054 33.3077C23.1514 33.4659 23.1292 33.6333 23.14 33.8001V37.4701L21.68 37.1701V33.5801C21.68 31.8001 22.68 31.2701 24.33 30.9001L25.17 30.7601V32.3001ZM29.74 37.6101C29.2861 37.6352 28.8321 37.5636 28.4079 37.4001C27.9838 37.2365 27.5992 36.9848 27.2797 36.6614C26.9601 36.3381 26.7129 35.9506 26.5544 35.5246C26.3958 35.0985 26.3296 34.6437 26.36 34.1901C26.331 33.7374 26.3984 33.2836 26.5576 32.8588C26.7168 32.434 26.9643 32.0477 27.2836 31.7255C27.603 31.4033 27.9871 31.1524 28.4105 30.9895C28.8339 30.8265 29.287 30.7552 29.74 30.7801C30.1856 30.763 30.6298 30.8407 31.0432 31.0081C31.4566 31.1755 31.8297 31.4287 32.1378 31.7511C32.446 32.0734 32.6822 32.4575 32.8309 32.878C32.9795 33.2985 33.0371 33.7457 33 34.1901C33.0386 34.6353 32.9821 35.0837 32.8342 35.5054C32.6862 35.927 32.4502 36.3124 32.1419 36.6359C31.8335 36.9594 31.4599 37.2135 31.0458 37.3815C30.6317 37.5495 30.1866 37.6274 29.74 37.6101V37.6101ZM29.74 32.1601C29.481 32.1552 29.2238 32.2045 28.9849 32.3047C28.7461 32.4049 28.5308 32.554 28.3528 32.7423C28.1749 32.9306 28.0383 33.1539 27.9517 33.3981C27.8651 33.6423 27.8305 33.9018 27.85 34.1601C27.8305 34.4184 27.8651 34.678 27.9517 34.9222C28.0383 35.1663 28.1749 35.3897 28.3528 35.578C28.5308 35.7663 28.7461 35.9153 28.9849 36.0156C29.2238 36.1158 29.481 36.165 29.74 36.1601C29.9908 36.1561 30.238 36.0997 30.4658 35.9946C30.6935 35.8894 30.8967 35.7378 31.0625 35.5495C31.2282 35.3612 31.3527 35.1403 31.428 34.901C31.5034 34.6618 31.5279 34.4094 31.5 34.1601C31.5279 33.9108 31.5034 33.6585 31.428 33.4192C31.3527 33.1799 31.2282 32.9591 31.0625 32.7708C30.8967 32.5825 30.6935 32.4309 30.4658 32.3257C30.238 32.2205 29.9908 32.1641 29.74 32.1601V32.1601Z" fill="black"/>
</g>
<defs>
<clipPath id="clip0">
<rect width="38.97" height="42.67" fill="white"/>
</clipPath>
</defs>
</svg>
