<svg width="45" height="46" viewBox="0 0 45 46" fill="none" xmlns="http://www.w3.org/2000/svg">
<ellipse cx="22.5" cy="22.8815" rx="16.9068" ry="17.0339" fill="#D0D0D0"/>
<path d="M5.59319 22.8821C5.59319 25.119 6.03049 27.3341 6.88014 29.4007C7.72978 31.4674 8.97513 33.3452 10.5451 34.9269C12.115 36.5086 13.9788 37.7634 16.03 38.6194C18.0812 39.4754 20.2797 39.916 22.5 39.916C24.7202 39.916 26.9187 39.4754 28.9699 38.6194C31.0211 37.7634 32.8849 36.5086 34.4549 34.9269C36.0248 33.3452 37.2701 31.4674 38.1198 29.4007C38.9694 27.3341 39.4067 25.119 39.4067 22.8821L22.5 22.8821L5.59319 22.8821Z" fill="black"/>
<path d="M5.80394e-06 22.7536C5.5427e-06 25.7417 0.581985 28.7006 1.71272 31.4612C2.84345 34.2219 4.50078 36.7303 6.5901 38.8432C8.67942 40.9562 11.1598 42.6322 13.8896 43.7757C16.6195 44.9193 19.5453 45.5078 22.5 45.5078C25.4547 45.5078 28.3806 44.9193 31.1104 43.7757C33.8402 42.6322 36.3206 40.9562 38.4099 38.8433C40.4992 36.7303 42.1566 34.2219 43.2873 31.4612C44.418 28.7006 45 25.7417 45 22.7536L39.2085 22.7536C39.2085 24.9726 38.7763 27.1698 37.9366 29.2199C37.0969 31.27 35.8662 33.1327 34.3147 34.7017C32.7631 36.2708 30.9212 37.5154 28.8941 38.3646C26.8669 39.2138 24.6942 39.6508 22.5 39.6508C20.3058 39.6508 18.1331 39.2138 16.1059 38.3646C14.0788 37.5154 12.2369 36.2708 10.6853 34.7017C9.13381 33.1327 7.90307 31.27 7.06339 29.2199C6.22371 27.1698 5.79154 24.9726 5.79154 22.7536L5.80394e-06 22.7536Z" fill="white"/>
</svg>
